<mxfile host="65bd71144e">
    <diagram name="Cloudflare Stack Architecture" id="cfstack-architecture">
        <mxGraphModel dx="1258" dy="932" grid="1" gridSize="10" guides="1" tooltips="1" connect="1" arrows="1" fold="1" page="1" pageScale="1" pageWidth="800" pageHeight="1300" background="#FFFFFF" math="0" shadow="0">
            <root>
                <mxCell id="0"/>
                <mxCell id="1" parent="0"/>
                <mxCell id="574" value="" style="rounded=1;whiteSpace=wrap;html=1;dashed=1;strokeWidth=2;movable=1;resizable=1;rotatable=1;deletable=1;editable=1;locked=0;connectable=1;fillStyle=cross-hatch;fillColor=none;" parent="1" vertex="1">
                    <mxGeometry x="464" y="50" width="692" height="990" as="geometry"/>
                </mxCell>
                <mxCell id="576" value="" style="shape=image;verticalLabelPosition=bottom;labelBackgroundColor=default;verticalAlign=top;aspect=fixed;imageAspect=0;image=data:image/svg+xml,PHN2ZyB4bWxucz0iaHR0cDovL3d3dy53My5vcmcvMjAwMC9zdmciIGFyaWEtbGFiZWw9InRpdGxlIGRlc2MiIGhlaWdodD0iNDZweCIgd2lkdGg9IjIwMHB4IiB2aWV3Qm94PSIwIDAgMTE3OS41IDI3MS4yIj48dGl0bGUvPjxkZXNjLz48Zz48cG9seWdvbiBwb2ludHM9IjUwMy4yLDE1NS42IDUxOC43LDE1NS42IDUxOC43LDE5OC4xIDU0NS45LDE5OC4xIDU0NS45LDIxMS43IDUwMy4yLDIxMS43IiBmaWxsPSIjMDAwIi8+PHBhdGggZD0iTTU2MiwxODMuOHYtMC4yYzAtMTYuMSwxMy0yOS4yLDMwLjMtMjkuMmMxNy4zLDAsMzAuMSwxMi45LDMwLjEsMjl2MC4yYzAsMTYuMS0xMywyOS4yLTMwLjMsMjkuMiAgICBDNTc0LjgsMjEyLjksNTYyLDIwMCw1NjIsMTgzLjggTTYwNi41LDE4My44di0wLjJjMC04LjEtNS44LTE1LjEtMTQuNC0xNS4xYy04LjUsMC0xNC4yLDYuOS0xNC4yLDE1djAuMiAgICBjMCw4LjEsNS44LDE1LjEsMTQuMywxNS4xQzYwMC45LDE5OC44LDYwNi41LDE5MS45LDYwNi41LDE4My44IiBmaWxsPSIjMDAwIi8+PHBhdGggZD0iTTY0MS40LDE4Ny4xdi0zMS41aDE1Ljh2MzEuMmMwLDguMSw0LjEsMTEuOSwxMC4zLDExLjljNi4yLDAsMTAuMy0zLjcsMTAuMy0xMS41di0zMS42aDE1Ljh2MzEuMSAgICBjMCwxOC4xLTEwLjMsMjYtMjYuMywyNkM2NTEuNSwyMTIuOCw2NDEuNCwyMDQuNyw2NDEuNCwxODcuMSIgZmlsbD0iIzAwMCIvPjxwYXRoIGQ9Ik03MTcuNSwxNTUuNmgyMS42YzIwLDAsMzEuNywxMS41LDMxLjcsMjcuN3YwLjJjMCwxNi4yLTExLjgsMjguMi0zMiwyOC4yaC0yMS4zVjE1NS42eiBNNzM5LjQsMTk4ICAgIGM5LjMsMCwxNS41LTUuMSwxNS41LTE0LjJ2LTAuMmMwLTktNi4yLTE0LjItMTUuNS0xNC4ySDczM1YxOThINzM5LjR6IiBmaWxsPSIjMDAwIi8+PHBvbHlnb24gcG9pbnRzPSI3OTMuNCwxNTUuNiA4MzguMiwxNTUuNiA4MzguMiwxNjkuMyA4MDguOSwxNjkuMyA4MDguOSwxNzguOCA4MzUuNCwxNzguOCA4MzUuNCwxOTEuNyA4MDguOSwxOTEuNyAgICAgODA4LjksMjExLjcgNzkzLjQsMjExLjciIGZpbGw9IiMwMDAiLz48cG9seWdvbiBwb2ludHM9Ijg1OS45LDE1NS42IDg3NS40LDE1NS42IDg3NS40LDE5OC4xIDkwMi42LDE5OC4xIDkwMi42LDIxMS43IDg1OS45LDIxMS43IiBmaWxsPSIjMDAwIi8+PHBhdGggZD0iTTk0My4yLDE1NS4yaDE1bDIzLjksNTYuNWgtMTYuN2wtNC4xLTEwaC0yMS42bC00LDEwaC0xNi4zTDk0My4yLDE1NS4yeiBNOTU2LjgsMTg5LjZsLTYuMi0xNS45bC02LjMsMTUuOSAgICBIOTU2Ljh6IiBmaWxsPSIjMDAwIi8+PHBhdGggZD0iTTEwMDIuMSwxNTUuNmgyNi41YzguNiwwLDE0LjUsMi4yLDE4LjMsNi4xYzMuMywzLjIsNSw3LjUsNSwxMy4xdjAuMmMwLDguNi00LjYsMTQuMy0xMS41LDE3LjJsMTMuNCwxOS42ICAgIGgtMThsLTExLjMtMTdoLTYuOHYxN2gtMTUuNVYxNTUuNnogTTEwMjcuOSwxODIuNmM1LjMsMCw4LjMtMi42LDguMy02Ljd2LTAuMmMwLTQuNC0zLjItNi43LTguNC02LjdoLTEwLjJ2MTMuNUgxMDI3Ljl6IiBmaWxsPSIjMDAwIi8+PHBvbHlnb24gcG9pbnRzPSIxMDc0LjMsMTU1LjYgMTExOS40LDE1NS42IDExMTkuNCwxNjguOSAxMDg5LjcsMTY4LjkgMTA4OS43LDE3Ny40IDExMTYuNiwxNzcuNCAxMTE2LjYsMTg5LjYgICAgIDEwODkuNywxODkuNiAxMDg5LjcsMTk4LjUgMTExOS44LDE5OC41IDExMTkuOCwyMTEuNyAxMDc0LjMsMjExLjciIGZpbGw9IiMwMDAiLz48cGF0aCBkPSJNNDY5LjEsMTkwLjRjLTIuMiw0LjktNi44LDguNC0xMi44LDguNGMtOC41LDAtMTQuMy03LjEtMTQuMy0xNS4xdi0wLjJjMC04LjEsNS43LTE1LDE0LjItMTUgICAgYzYuNCwwLDExLjMsMy45LDEzLjMsOS4zaDE2LjRjLTIuNi0xMy40LTE0LjQtMjMuMy0yOS42LTIzLjNjLTE3LjMsMC0zMC4zLDEzLjEtMzAuMywyOS4ydjAuMmMwLDE2LjEsMTIuOCwyOSwzMC4xLDI5ICAgIGMxNC44LDAsMjYuNC05LjYsMjkuNC0yMi40SDQ2OS4xeiIgZmlsbD0iIzAwMCIvPjwvZz48Zz48cGF0aCBkPSJNMzI4LjYsMTI1LjZjLTAuOCwwLTEuNSwwLjYtMS44LDEuNGwtNC44LDE2LjdjLTIuMSw3LjItMS4zLDEzLjgsMi4yLDE4LjcgICAgYzMuMiw0LjUsOC42LDcuMSwxNS4xLDcuNGwyNi4yLDEuNmMwLjgsMCwxLjUsMC40LDEuOSwxYzAuNCwwLjYsMC41LDEuNSwwLjMsMi4yYy0wLjQsMS4yLTEuNiwyLjEtMi45LDIuMmwtMjcuMywxLjYgICAgYy0xNC44LDAuNy0zMC43LDEyLjYtMzYuMywyNy4ybC0yLDUuMWMtMC40LDEsMC4zLDIsMS40LDJoOTMuOGMxLjEsMCwyLjEtMC43LDIuNC0xLjhjMS42LTUuOCwyLjUtMTEuOSwyLjUtMTguMiAgICBjMC0zNy0zMC4yLTY3LjItNjcuMy02Ny4yQzMzMC45LDEyNS41LDMyOS43LDEyNS41LDMyOC42LDEyNS42eiIgZmlsbD0iI0ZCQUQ0MSIvPjxwYXRoIGQ9Ik0yOTIuOCwyMDQuNGMyLjEtNy4yLDEuMy0xMy44LTIuMi0xOC43Yy0zLjItNC41LTguNi03LjEtMTUuMS03LjRsLTEyMy4xLTEuNiAgICBjLTAuOCwwLTEuNS0wLjQtMS45LTFzLTAuNS0xLjQtMC4zLTIuMmMwLjQtMS4yLDEuNi0yLjEsMi45LTIuMmwxMjQuMi0xLjZjMTQuNy0wLjcsMzAuNy0xMi42LDM2LjMtMjcuMmw3LjEtMTguNSAgICBjMC4zLTAuOCwwLjQtMS42LDAuMi0yLjRjLTgtMzYuMi00MC4zLTYzLjItNzguOS02My4yYy0zNS42LDAtNjUuOCwyMy03Ni42LDU0LjljLTctNS4yLTE1LjktOC0yNS41LTcuMSAgICBjLTE3LjEsMS43LTMwLjgsMTUuNC0zMi41LDMyLjVjLTAuNCw0LjQtMC4xLDguNywwLjksMTIuN2MtMjcuOSwwLjgtNTAuMiwyMy42LTUwLjIsNTEuN2MwLDIuNSwwLjIsNSwwLjUsNy41ICAgIGMwLjIsMS4yLDEuMiwyLjEsMi40LDIuMWgyMjcuMmMxLjMsMCwyLjUtMC45LDIuOS0yLjJMMjkyLjgsMjA0LjR6IiBmaWxsPSIjRjY4MjFGIi8+PC9nPjwvc3ZnPg==;" parent="1" vertex="1">
                    <mxGeometry x="492" y="70" width="304.35" height="70" as="geometry"/>
                </mxCell>
                <mxCell id="579" value="" style="group" parent="1" vertex="1" connectable="0">
                    <mxGeometry x="646" y="160" width="300" height="170" as="geometry"/>
                </mxCell>
                <mxCell id="578" value="" style="rounded=1;whiteSpace=wrap;html=1;" parent="579" vertex="1">
                    <mxGeometry x="30" width="240" height="170" as="geometry"/>
                </mxCell>
                <mxCell id="573" value="" style="shape=image;verticalLabelPosition=bottom;labelBackgroundColor=default;verticalAlign=top;aspect=fixed;imageAspect=0;image=data:image/svg+xml,PHN2ZyB4bWxucz0iaHR0cDovL3d3dy53My5vcmcvMjAwMC9zdmciIGFyaWEtaGlkZGVuPSJ0cnVlIiB2aWV3Qm94PSIwIDAgMTYgMTYiIHJvbGU9InByZXNlbnRhdGlvbiIgY2xhc3M9ImNfYSBjX2IgY19jIGNfZCIgZmlsbD0iIzAwNTFjMyI+PHBhdGggZD0iTTYuMjEgMTIuMjkzbC0zLjIxNS00LjMgMy4xOTctNC4xNzgtLjYxNy0uODQyLTMuNjAzIDQuNzEyLS4wMDUuNjAzIDMuNjIgNC44NDcuNjIzLS44NDJ6Ii8+PHBhdGggZD0iTTcuMzMyIDEuOTg4SDYuMDk1bDQuNDYyIDYuMS00LjM1NyA1LjloMS4yNDVMMTEuOCA4LjA5IDcuMzMyIDEuOTg4eiIvPjxwYXRoIGQ9Ik05LjcyNSAxLjk4OEg4LjQ3Mmw0LjUzMyA2LjAyNy00LjUzMyA1Ljk3M2gxLjI1NWw0LjMwMy01LjY3di0uNjAzTDkuNzI1IDEuOTg4eiIvPjwvc3ZnPg==;" parent="579" vertex="1">
                    <mxGeometry x="100" width="100" height="100" as="geometry"/>
                </mxCell>
                <mxCell id="577" value="&lt;font style=&quot;color: rgb(63, 63, 63); scrollbar-color: rgb(226, 226, 226) rgb(251, 251, 251); font-size: 25px;&quot;&gt;Cloudflare Worker&lt;/font&gt;&lt;div style=&quot;color: rgb(63, 63, 63); scrollbar-color: rgb(226, 226, 226) rgb(251, 251, 251);&quot;&gt;&lt;span style=&quot;color: rgb(63, 63, 63); scrollbar-color: rgb(226, 226, 226) rgb(251, 251, 251); font-size: 25px;&quot;&gt;Entrypoint Cron&lt;/span&gt;&lt;/div&gt;" style="text;html=1;align=center;verticalAlign=middle;whiteSpace=wrap;rounded=0;" parent="579" vertex="1">
                    <mxGeometry y="100" width="300" height="60" as="geometry"/>
                </mxCell>
                <mxCell id="581" value="" style="group" parent="1" vertex="1" connectable="0">
                    <mxGeometry x="646" y="370" width="300" height="170" as="geometry"/>
                </mxCell>
                <mxCell id="591" style="edgeStyle=none;html=1;exitX=0.5;exitY=1;exitDx=0;exitDy=0;" parent="581" source="582" edge="1">
                    <mxGeometry relative="1" as="geometry">
                        <mxPoint x="149.64705882352928" y="200" as="targetPoint"/>
                    </mxGeometry>
                </mxCell>
                <mxCell id="582" value="" style="rounded=1;whiteSpace=wrap;html=1;" parent="581" vertex="1">
                    <mxGeometry x="30" width="240" height="170" as="geometry"/>
                </mxCell>
                <mxCell id="584" value="&lt;font style=&quot;font-size: 25px;&quot;&gt;Cloudflare Queue&lt;/font&gt;" style="text;html=1;align=center;verticalAlign=middle;whiteSpace=wrap;rounded=0;" parent="581" vertex="1">
                    <mxGeometry y="100" width="300" height="60" as="geometry"/>
                </mxCell>
                <mxCell id="585" value="" style="shape=image;verticalLabelPosition=bottom;labelBackgroundColor=default;verticalAlign=top;aspect=fixed;imageAspect=0;image=data:image/svg+xml,PHN2ZyB4bWxucz0iaHR0cDovL3d3dy53My5vcmcvMjAwMC9zdmciIGFyaWEtaGlkZGVuPSJ0cnVlIiB2aWV3Qm94PSIwIDAgMTYgMTYiIHJvbGU9InByZXNlbnRhdGlvbiIgY2xhc3M9ImNfYSBjX2IgY19jIGNfZCIgZmlsbD0iIzAwNTFjMyI+PHBhdGggZD0iTTEzLjAyMyA0LjEzMUgyLjcyNlYzaDEwLjI5N3YxLjEzMVpNOS42OTIgMTAuOTJWNS4yNjNoMS4yMTF2NS42NTZIOS42OTJ2LjAwMVptLTQuODQ2IDBWNS4yNjNoMS4yMTF2NS42NTZINC44NDZ2LjAwMVptMi40MjMgMFY1LjI2M0g4LjQ4djUuNjU2SDcuMjdsLS4wMDEuMDAxWk0yLjE3MiA3LjUyNSAxLjA4NiA2LjUxMWwuODU3LS44IDIuNTQ4IDIuMzgtMi41NDggMi4zOC0uODU3LS44IDEuMDg2LTEuMDE0SDBWNy41MjVoMi4xNzJabTExLjUwOSAwLTEuMDg2LTEuMDE0Ljg1Ny0uOEwxNiA4LjA5MWwtMi41NDggMi4zOC0uODU3LS44IDEuMDg2LTEuMDE0aC0yLjE3MlY3LjUyNWgyLjE3MlptLS42NTggNS42NTdIMi43MjZWMTIuMDVoMTAuMjk3djEuMTMyWiIgZmlsbC1ydWxlPSJldmVub2RkIi8+PC9zdmc+;" parent="581" vertex="1">
                    <mxGeometry x="100" y="10" width="100" height="100" as="geometry"/>
                </mxCell>
                <mxCell id="586" style="edgeStyle=none;html=1;exitX=0.5;exitY=1;exitDx=0;exitDy=0;entryX=0.5;entryY=0;entryDx=0;entryDy=0;" parent="1" source="578" target="582" edge="1">
                    <mxGeometry relative="1" as="geometry"/>
                </mxCell>
                <mxCell id="587" value="" style="group" parent="1" vertex="1" connectable="0">
                    <mxGeometry x="646" y="570" width="300" height="170" as="geometry"/>
                </mxCell>
                <mxCell id="588" value="" style="rounded=1;whiteSpace=wrap;html=1;" parent="587" vertex="1">
                    <mxGeometry x="30" width="240" height="170" as="geometry"/>
                </mxCell>
                <mxCell id="589" value="" style="shape=image;verticalLabelPosition=bottom;labelBackgroundColor=default;verticalAlign=top;aspect=fixed;imageAspect=0;image=data:image/svg+xml,PHN2ZyB4bWxucz0iaHR0cDovL3d3dy53My5vcmcvMjAwMC9zdmciIGFyaWEtaGlkZGVuPSJ0cnVlIiB2aWV3Qm94PSIwIDAgMTYgMTYiIHJvbGU9InByZXNlbnRhdGlvbiIgY2xhc3M9ImNfYSBjX2IgY19jIGNfZCIgZmlsbD0iIzAwNTFjMyI+PHBhdGggZD0iTTYuMjEgMTIuMjkzbC0zLjIxNS00LjMgMy4xOTctNC4xNzgtLjYxNy0uODQyLTMuNjAzIDQuNzEyLS4wMDUuNjAzIDMuNjIgNC44NDcuNjIzLS44NDJ6Ii8+PHBhdGggZD0iTTcuMzMyIDEuOTg4SDYuMDk1bDQuNDYyIDYuMS00LjM1NyA1LjloMS4yNDVMMTEuOCA4LjA5IDcuMzMyIDEuOTg4eiIvPjxwYXRoIGQ9Ik05LjcyNSAxLjk4OEg4LjQ3Mmw0LjUzMyA2LjAyNy00LjUzMyA1Ljk3M2gxLjI1NWw0LjMwMy01LjY3di0uNjAzTDkuNzI1IDEuOTg4eiIvPjwvc3ZnPg==;" parent="587" vertex="1">
                    <mxGeometry x="100" width="100" height="100" as="geometry"/>
                </mxCell>
                <mxCell id="590" value="&lt;font style=&quot;font-size: 25px;&quot;&gt;Cloudflare Worker&lt;/font&gt;&lt;div&gt;&lt;span style=&quot;font-size: 25px;&quot;&gt;Scraping+Save&lt;/span&gt;&lt;/div&gt;" style="text;html=1;align=center;verticalAlign=middle;whiteSpace=wrap;rounded=0;" parent="587" vertex="1">
                    <mxGeometry y="100" width="300" height="60" as="geometry"/>
                </mxCell>
                <mxCell id="596" value="" style="group" parent="1" vertex="1" connectable="0">
                    <mxGeometry x="796" y="810" width="300" height="170" as="geometry"/>
                </mxCell>
                <mxCell id="597" value="" style="rounded=1;whiteSpace=wrap;html=1;" parent="596" vertex="1">
                    <mxGeometry x="30" width="240" height="170" as="geometry"/>
                </mxCell>
                <mxCell id="599" value="&lt;span style=&quot;font-size: 25px;&quot;&gt;Cloudflare R2&lt;/span&gt;" style="text;html=1;align=center;verticalAlign=middle;whiteSpace=wrap;rounded=0;" parent="596" vertex="1">
                    <mxGeometry y="100" width="300" height="60" as="geometry"/>
                </mxCell>
                <mxCell id="600" value="" style="shape=image;verticalLabelPosition=bottom;labelBackgroundColor=default;verticalAlign=top;aspect=fixed;imageAspect=0;image=data:image/svg+xml,PHN2ZyB4bWxucz0iaHR0cDovL3d3dy53My5vcmcvMjAwMC9zdmciIGFyaWEtaGlkZGVuPSJ0cnVlIiB2aWV3Qm94PSIwIDAgMTYgMTYiIHJvbGU9InByZXNlbnRhdGlvbiIgY2xhc3M9ImNfYSBjX2IgY19jIGNfZCIgZmlsbD0iIzAwNTFjMyI+PHBhdGggZD0iTTEyLjExNiAyLjU3Yy0uOTczLS4zMjYtMi4zODQtLjU0Ni0zLjk5MS0uNTQ2LTEuNjA3IDAtMy4wMTguMjItMy45OS41NDUtLjQ5Mi4xNjQtLjgxNC4zMzctLjk5Mi40NzhhLjg5Ljg5IDAgMDAtLjA4Mi4wNzJjLjAyLjA2OS4wNzguMTU4LjIyNS4yNjguMjEuMTU4LjU0OC4zMTMgMS4wMjUuNDQ4Ljk0Ny4yNjYgMi4yOTIuNDA5IDMuODE0LjQwOSAxLjUyMiAwIDIuODY3LS4xNDMgMy44MTQtLjQxLjQ3Ny0uMTM0LjgxNi0uMjkgMS4wMjUtLjQ0Ny4xNDctLjExLjIwNC0uMi4yMjUtLjI2OGEuODg0Ljg4NCAwIDAwLS4wODItLjA3MmMtLjE3OC0uMTQxLS41LS4zMTQtLjk5MS0uNDc4ek00LjAyIDQuODE4YTUuMTggNS4xOCAwIDAxLS45Ny0uMzY5djEuNzU3YzAgLjA3OS4wMzkuMjA2LjI1LjM3Ny4yMTQuMTczLjU1Ni4zNDcgMS4wMy41Ljk0NC4zMDYgMi4yODQuNDkgMy43OTUuNDkgMS41MSAwIDIuODUtLjE4NCAzLjc5NC0uNDkuNDc0LS4xNTMuODE3LS4zMjcgMS4wMy0uNS4yMTItLjE3MS4yNTEtLjI5OC4yNTEtLjM3N1Y0LjQ1YTUuMTggNS4xOCAwIDAxLS45Ny4zNjljLTEuMDguMzA0LTIuNTM0LjQ1LTQuMTA1LjQ1LTEuNTcxIDAtMy4wMjYtLjE0Ni00LjEwNS0uNDV6bTEwLjIzIDEuMzg4VjMuMDVDMTQuMjUgMS45MTcgMTEuNTA4IDEgOC4xMjUgMVMyIDEuOTE3IDIgMy4wNDlWMTIuOTVDMiAxNC4wODMgNC43NDIgMTUgOC4xMjUgMTVzNi4xMjUtLjkxNyA2LjEyNS0yLjA0OVY2LjIwN3pNMTMuMiA3LjY1NGMtLjI4LjE1Ny0uNjAyLjI5LS45NS40MDMtMS4wODMuMzUtMi41NDMuNTQtNC4xMjUuNTQtMS41ODIgMC0zLjA0Mi0uMTktNC4xMjUtLjU0YTUuMjU4IDUuMjU4IDAgMDEtLjk1LS40MDN2MS43MTJjMCAuMDc4LjAzOS4yMDUuMjUuMzc2LjIxNC4xNzMuNTU2LjM0OCAxLjAzLjUwMS45NDQuMzA2IDIuMjg0LjQ4OSAzLjc5NS40ODkgMS41MSAwIDIuODUtLjE4MyAzLjc5NC0uNDg5LjQ3NC0uMTUzLjgxNy0uMzI4IDEuMDMtLjUuMjEyLS4xNzIuMjUxLS4yOTkuMjUxLS4zNzdWNy42NTR6TTQgMTEuMjE1YTUuMjUzIDUuMjUzIDAgMDEtLjk1LS40MDN2Mi4wNThjLjAxOC4wMTkuMDQ3LjA0Ni4wOTMuMDgzLjE3OC4xNDEuNS4zMTQuOTkyLjQ3OC45NzIuMzI1IDIuMzgzLjU0NSAzLjk5LjU0NSAxLjYwNyAwIDMuMDE4LS4yMiAzLjk5LS41NDUuNDkyLS4xNjQuODE0LS4zMzcuOTkyLS40NzhhLjgwOS44MDkgMCAwMC4wOTMtLjA4M3YtMi4wNThhNS4yNSA1LjI1IDAgMDEtLjk1LjQwM2MtMS4wODMuMzUxLTIuNTQzLjU0MS00LjEyNS41NDEtMS41ODIgMC0zLjA0Mi0uMTktNC4xMjUtLjU0em05LjIyNCAxLjYyNHMwIC4wMDItLjAwNC4wMDZhLjAyOC4wMjggMCAwMS4wMDQtLjAwNnptLTEwLjE5OCAwbC4wMDQuMDA2YS4wMjQuMDI0IDAgMDEtLjAwNC0uMDA2em0xLjU5OS02LjI5Yy4yOSAwIC41MjUtLjIzLjUyNS0uNTEyYS41MTkuNTE5IDAgMDAtLjUyNS0uNTEzYy0uMjkgMC0uNTI1LjIzLS41MjUuNTEzIDAgLjI4Mi4yMzUuNTEyLjUyNS41MTJ6TTUuMTUgOS4yOGEuNTE5LjUxOSAwIDAxLS41MjUuNTEzLjUxOS41MTkgMCAwMS0uNTI1LS41MTNjMC0uMjgyLjIzNS0uNTEyLjUyNS0uNTEyLjI5IDAgLjUyNS4yMy41MjUuNTEyem0tLjUyNSAzLjY3MWMuMjkgMCAuNTI1LS4yMy41MjUtLjUxMmEuNTE5LjUxOSAwIDAwLS41MjUtLjUxMmMtLjI5IDAtLjUyNS4yMy0uNTI1LjUxMiAwIC4yODMuMjM1LjUxMi41MjUuNTEyeiIgZmlsbC1ydWxlPSJldmVub2RkIi8+PC9zdmc+;" parent="596" vertex="1">
                    <mxGeometry x="100" y="10" width="100" height="100" as="geometry"/>
                </mxCell>
                <mxCell id="601" value="" style="group" parent="1" vertex="1" connectable="0">
                    <mxGeometry x="496" y="810" width="300" height="170" as="geometry"/>
                </mxCell>
                <mxCell id="602" value="" style="rounded=1;whiteSpace=wrap;html=1;" parent="601" vertex="1">
                    <mxGeometry x="30" width="240" height="170" as="geometry"/>
                </mxCell>
                <mxCell id="603" value="&lt;span style=&quot;font-size: 25px;&quot;&gt;Cloudflare D1&lt;/span&gt;" style="text;html=1;align=center;verticalAlign=middle;whiteSpace=wrap;rounded=0;" parent="601" vertex="1">
                    <mxGeometry y="100" width="300" height="60" as="geometry"/>
                </mxCell>
                <mxCell id="569" value="" style="shape=image;verticalLabelPosition=bottom;labelBackgroundColor=default;verticalAlign=top;aspect=fixed;imageAspect=0;image=data:image/svg+xml,PHN2ZyB4bWxucz0iaHR0cDovL3d3dy53My5vcmcvMjAwMC9zdmciIGFyaWEtaGlkZGVuPSJ0cnVlIiB2aWV3Qm94PSIwIDAgMTYgMTYiIHJvbGU9InByZXNlbnRhdGlvbiIgY2xhc3M9ImNfYSBjX2IgY19jIGNfZCIgZmlsbD0iIzAwNTFjMyI+PHBhdGggZD0ibTIuMjA3IDIuMzgxIDEuNjg3LTEuMjg0TDQuMjEgMWg3LjYwNGwuMzEzLjEwMiAxLjczNiAxLjI4NS4yMTUuNDIzdjkuOThsLS4xNDUuMzYyLTEuMjY4IDEuMzQzLS4zODQuMTY1SDMuOTY3bC0uMzYtLjE0Mi0xLjQzOS0xLjM0MkwyIDEyLjc5VjIuODFsLjIwNy0uNDI5Wm0uODQ0IDYuNjc0IDEuMTc0IDEuMjk4aC4wMTR2MS4wNWgtLjQ4bC0uNzA4LS43ODh2MS45NDFsMS4xMTggMS4wNWg3Ljg4bC45NzItMS4wMjZ2LTIuMDI4bC0uOTY0Ljg1MUg3LjE2di0xLjA1aDQuNTA1bDEuMzYzLTEuMjExVjcuMTg4bC0uOTY0Ljg1M0g3LjE2di0xLjA1aDQuNTA1bDEuMzYzLTEuMjA4VjMuOTY1bC0uOTY0Ljg1NkgzLjc3bC0uNzItLjczNXYxLjYwN2wxLjE3NSAxLjI5OGguMDE0djEuMDVoLS40OGwtLjcwOC0uNzg4djEuODAyWm04LjU5LTcuMDA0SDQuMzg4bC0xLjA2OS44MTYuODkzLjkxNGg3LjQ1NGwxLjA1LS45MzUtMS4wNzMtLjc5NVoiIGZpbGwtcnVsZT0iZXZlbm9kZCIvPjxwYXRoIGQ9Ik01LjcgOC40NTJhLjc4OC43ODggMCAxIDEgMCAxLjU3Ni43ODguNzg4IDAgMCAxIDAtMS41NzZabS0uOTMgMy44NTguOTMtLjkyOS45MjguOTI5LS45MjkuOTI4LS45MjgtLjkyOFptLjkzLTcuMDUuNzk2LjQ2di45MmwtLjc5Ny40Ni0uNzk2LS40NnYtLjkybC43OTYtLjQ2WiIvPjwvc3ZnPg==;" parent="601" vertex="1">
                    <mxGeometry x="100" y="10" width="100" height="100" as="geometry"/>
                </mxCell>
                <mxCell id="605" style="edgeStyle=none;html=1;exitX=0.5;exitY=1;exitDx=0;exitDy=0;entryX=0.5;entryY=0;entryDx=0;entryDy=0;" parent="1" source="588" target="602" edge="1">
                    <mxGeometry relative="1" as="geometry"/>
                </mxCell>
                <mxCell id="606" style="edgeStyle=none;html=1;exitX=0.5;exitY=1;exitDx=0;exitDy=0;entryX=0.5;entryY=0;entryDx=0;entryDy=0;" parent="1" source="588" target="597" edge="1">
                    <mxGeometry relative="1" as="geometry"/>
                </mxCell>
                <mxCell id="607" value="" style="rounded=1;whiteSpace=wrap;html=1;dashed=1;strokeColor=light-dark(#fc8138, #ededed);strokeWidth=2;fillColor=none;fillStyle=cross-hatch;" parent="1" vertex="1">
                    <mxGeometry x="450" y="1100" width="692" height="390" as="geometry"/>
                </mxCell>
                <mxCell id="608" value="" style="shape=image;verticalLabelPosition=bottom;labelBackgroundColor=default;verticalAlign=top;aspect=fixed;imageAspect=0;image=data:image/svg+xml,PHN2ZyB4bWxucz0iaHR0cDovL3d3dy53My5vcmcvMjAwMC9zdmciIGFyaWEtbGFiZWw9InRpdGxlIGRlc2MiIGhlaWdodD0iNDZweCIgd2lkdGg9IjIwMHB4IiB2aWV3Qm94PSIwIDAgMTE3OS41IDI3MS4yIj48dGl0bGUvPjxkZXNjLz48Zz48cG9seWdvbiBwb2ludHM9IjUwMy4yLDE1NS42IDUxOC43LDE1NS42IDUxOC43LDE5OC4xIDU0NS45LDE5OC4xIDU0NS45LDIxMS43IDUwMy4yLDIxMS43IiBmaWxsPSIjMDAwIi8+PHBhdGggZD0iTTU2MiwxODMuOHYtMC4yYzAtMTYuMSwxMy0yOS4yLDMwLjMtMjkuMmMxNy4zLDAsMzAuMSwxMi45LDMwLjEsMjl2MC4yYzAsMTYuMS0xMywyOS4yLTMwLjMsMjkuMiAgICBDNTc0LjgsMjEyLjksNTYyLDIwMCw1NjIsMTgzLjggTTYwNi41LDE4My44di0wLjJjMC04LjEtNS44LTE1LjEtMTQuNC0xNS4xYy04LjUsMC0xNC4yLDYuOS0xNC4yLDE1djAuMiAgICBjMCw4LjEsNS44LDE1LjEsMTQuMywxNS4xQzYwMC45LDE5OC44LDYwNi41LDE5MS45LDYwNi41LDE4My44IiBmaWxsPSIjMDAwIi8+PHBhdGggZD0iTTY0MS40LDE4Ny4xdi0zMS41aDE1Ljh2MzEuMmMwLDguMSw0LjEsMTEuOSwxMC4zLDExLjljNi4yLDAsMTAuMy0zLjcsMTAuMy0xMS41di0zMS42aDE1Ljh2MzEuMSAgICBjMCwxOC4xLTEwLjMsMjYtMjYuMywyNkM2NTEuNSwyMTIuOCw2NDEuNCwyMDQuNyw2NDEuNCwxODcuMSIgZmlsbD0iIzAwMCIvPjxwYXRoIGQ9Ik03MTcuNSwxNTUuNmgyMS42YzIwLDAsMzEuNywxMS41LDMxLjcsMjcuN3YwLjJjMCwxNi4yLTExLjgsMjguMi0zMiwyOC4yaC0yMS4zVjE1NS42eiBNNzM5LjQsMTk4ICAgIGM5LjMsMCwxNS41LTUuMSwxNS41LTE0LjJ2LTAuMmMwLTktNi4yLTE0LjItMTUuNS0xNC4ySDczM1YxOThINzM5LjR6IiBmaWxsPSIjMDAwIi8+PHBvbHlnb24gcG9pbnRzPSI3OTMuNCwxNTUuNiA4MzguMiwxNTUuNiA4MzguMiwxNjkuMyA4MDguOSwxNjkuMyA4MDguOSwxNzguOCA4MzUuNCwxNzguOCA4MzUuNCwxOTEuNyA4MDguOSwxOTEuNyAgICAgODA4LjksMjExLjcgNzkzLjQsMjExLjciIGZpbGw9IiMwMDAiLz48cG9seWdvbiBwb2ludHM9Ijg1OS45LDE1NS42IDg3NS40LDE1NS42IDg3NS40LDE5OC4xIDkwMi42LDE5OC4xIDkwMi42LDIxMS43IDg1OS45LDIxMS43IiBmaWxsPSIjMDAwIi8+PHBhdGggZD0iTTk0My4yLDE1NS4yaDE1bDIzLjksNTYuNWgtMTYuN2wtNC4xLTEwaC0yMS42bC00LDEwaC0xNi4zTDk0My4yLDE1NS4yeiBNOTU2LjgsMTg5LjZsLTYuMi0xNS45bC02LjMsMTUuOSAgICBIOTU2Ljh6IiBmaWxsPSIjMDAwIi8+PHBhdGggZD0iTTEwMDIuMSwxNTUuNmgyNi41YzguNiwwLDE0LjUsMi4yLDE4LjMsNi4xYzMuMywzLjIsNSw3LjUsNSwxMy4xdjAuMmMwLDguNi00LjYsMTQuMy0xMS41LDE3LjJsMTMuNCwxOS42ICAgIGgtMThsLTExLjMtMTdoLTYuOHYxN2gtMTUuNVYxNTUuNnogTTEwMjcuOSwxODIuNmM1LjMsMCw4LjMtMi42LDguMy02Ljd2LTAuMmMwLTQuNC0zLjItNi43LTguNC02LjdoLTEwLjJ2MTMuNUgxMDI3Ljl6IiBmaWxsPSIjMDAwIi8+PHBvbHlnb24gcG9pbnRzPSIxMDc0LjMsMTU1LjYgMTExOS40LDE1NS42IDExMTkuNCwxNjguOSAxMDg5LjcsMTY4LjkgMTA4OS43LDE3Ny40IDExMTYuNiwxNzcuNCAxMTE2LjYsMTg5LjYgICAgIDEwODkuNywxODkuNiAxMDg5LjcsMTk4LjUgMTExOS44LDE5OC41IDExMTkuOCwyMTEuNyAxMDc0LjMsMjExLjciIGZpbGw9IiMwMDAiLz48cGF0aCBkPSJNNDY5LjEsMTkwLjRjLTIuMiw0LjktNi44LDguNC0xMi44LDguNGMtOC41LDAtMTQuMy03LjEtMTQuMy0xNS4xdi0wLjJjMC04LjEsNS43LTE1LDE0LjItMTUgICAgYzYuNCwwLDExLjMsMy45LDEzLjMsOS4zaDE2LjRjLTIuNi0xMy40LTE0LjQtMjMuMy0yOS42LTIzLjNjLTE3LjMsMC0zMC4zLDEzLjEtMzAuMywyOS4ydjAuMmMwLDE2LjEsMTIuOCwyOSwzMC4xLDI5ICAgIGMxNC44LDAsMjYuNC05LjYsMjkuNC0yMi40SDQ2OS4xeiIgZmlsbD0iIzAwMCIvPjwvZz48Zz48cGF0aCBkPSJNMzI4LjYsMTI1LjZjLTAuOCwwLTEuNSwwLjYtMS44LDEuNGwtNC44LDE2LjdjLTIuMSw3LjItMS4zLDEzLjgsMi4yLDE4LjcgICAgYzMuMiw0LjUsOC42LDcuMSwxNS4xLDcuNGwyNi4yLDEuNmMwLjgsMCwxLjUsMC40LDEuOSwxYzAuNCwwLjYsMC41LDEuNSwwLjMsMi4yYy0wLjQsMS4yLTEuNiwyLjEtMi45LDIuMmwtMjcuMywxLjYgICAgYy0xNC44LDAuNy0zMC43LDEyLjYtMzYuMywyNy4ybC0yLDUuMWMtMC40LDEsMC4zLDIsMS40LDJoOTMuOGMxLjEsMCwyLjEtMC43LDIuNC0xLjhjMS42LTUuOCwyLjUtMTEuOSwyLjUtMTguMiAgICBjMC0zNy0zMC4yLTY3LjItNjcuMy02Ny4yQzMzMC45LDEyNS41LDMyOS43LDEyNS41LDMyOC42LDEyNS42eiIgZmlsbD0iI0ZCQUQ0MSIvPjxwYXRoIGQ9Ik0yOTIuOCwyMDQuNGMyLjEtNy4yLDEuMy0xMy44LTIuMi0xOC43Yy0zLjItNC41LTguNi03LjEtMTUuMS03LjRsLTEyMy4xLTEuNiAgICBjLTAuOCwwLTEuNS0wLjQtMS45LTFzLTAuNS0xLjQtMC4zLTIuMmMwLjQtMS4yLDEuNi0yLjEsMi45LTIuMmwxMjQuMi0xLjZjMTQuNy0wLjcsMzAuNy0xMi42LDM2LjMtMjcuMmw3LjEtMTguNSAgICBjMC4zLTAuOCwwLjQtMS42LDAuMi0yLjRjLTgtMzYuMi00MC4zLTYzLjItNzguOS02My4yYy0zNS42LDAtNjUuOCwyMy03Ni42LDU0LjljLTctNS4yLTE1LjktOC0yNS41LTcuMSAgICBjLTE3LjEsMS43LTMwLjgsMTUuNC0zMi41LDMyLjVjLTAuNCw0LjQtMC4xLDguNywwLjksMTIuN2MtMjcuOSwwLjgtNTAuMiwyMy42LTUwLjIsNTEuN2MwLDIuNSwwLjIsNSwwLjUsNy41ICAgIGMwLjIsMS4yLDEuMiwyLjEsMi40LDIuMWgyMjcuMmMxLjMsMCwyLjUtMC45LDIuOS0yLjJMMjkyLjgsMjA0LjR6IiBmaWxsPSIjRjY4MjFGIi8+PC9nPjwvc3ZnPg==;" parent="1" vertex="1">
                    <mxGeometry x="776" y="1390" width="347.83" height="80" as="geometry"/>
                </mxCell>
                <mxCell id="610" value="" style="group" parent="1" vertex="1" connectable="0">
                    <mxGeometry x="646" y="1190" width="300" height="173.71" as="geometry"/>
                </mxCell>
                <mxCell id="611" value="" style="rounded=1;whiteSpace=wrap;html=1;" parent="610" vertex="1">
                    <mxGeometry x="30" width="240" height="170" as="geometry"/>
                </mxCell>
                <mxCell id="612" value="" style="shape=image;verticalLabelPosition=bottom;labelBackgroundColor=default;verticalAlign=top;aspect=fixed;imageAspect=0;image=data:image/svg+xml,PHN2ZyB4bWxucz0iaHR0cDovL3d3dy53My5vcmcvMjAwMC9zdmciIGFyaWEtaGlkZGVuPSJ0cnVlIiB2aWV3Qm94PSIwIDAgMTYgMTYiIHJvbGU9InByZXNlbnRhdGlvbiIgY2xhc3M9ImNfYSBjX2IgY19jIGNfZCIgZmlsbD0iIzAwNTFjMyI+PHBhdGggZD0iTTYuMjEgMTIuMjkzbC0zLjIxNS00LjMgMy4xOTctNC4xNzgtLjYxNy0uODQyLTMuNjAzIDQuNzEyLS4wMDUuNjAzIDMuNjIgNC44NDcuNjIzLS44NDJ6Ii8+PHBhdGggZD0iTTcuMzMyIDEuOTg4SDYuMDk1bDQuNDYyIDYuMS00LjM1NyA1LjloMS4yNDVMMTEuOCA4LjA5IDcuMzMyIDEuOTg4eiIvPjxwYXRoIGQ9Ik05LjcyNSAxLjk4OEg4LjQ3Mmw0LjUzMyA2LjAyNy00LjUzMyA1Ljk3M2gxLjI1NWw0LjMwMy01LjY3di0uNjAzTDkuNzI1IDEuOTg4eiIvPjwvc3ZnPg==;" parent="610" vertex="1">
                    <mxGeometry x="70" y="15" width="90" height="90" as="geometry"/>
                </mxCell>
                <mxCell id="613" value="&lt;font style=&quot;font-size: 25px;&quot;&gt;Cloudflare Worker&lt;/font&gt;&lt;div&gt;&lt;span style=&quot;font-size: 25px;&quot;&gt;Sveltekit&lt;/span&gt;&lt;/div&gt;" style="text;html=1;align=center;verticalAlign=middle;whiteSpace=wrap;rounded=0;" parent="610" vertex="1">
                    <mxGeometry y="100" width="300" height="60" as="geometry"/>
                </mxCell>
                <mxCell id="614" value="" style="shape=image;verticalLabelPosition=bottom;labelBackgroundColor=default;verticalAlign=top;aspect=fixed;imageAspect=0;image=data:image/svg+xml,PHN2ZyB4bWxucz0iaHR0cDovL3d3dy53My5vcmcvMjAwMC9zdmciIHZpZXdCb3g9IjAgMCA1MTMuOTc4NCA1OTcuMTI4ODQiIGhlaWdodD0iNTk3LjEyODg1IiB3aWR0aD0iNTEzLjk3ODM5IiBpZD0ic3ZnMiIgdmVyc2lvbj0iMS4xIj4KICA8bWV0YWRhdGEgaWQ9Im1ldGFkYXRhOCI+CiAgICAKICAgICAgCiAgICAgICAgaW1hZ2Uvc3ZnK3htbAogICAgICAgIAogICAgICAgIAogICAgICAKICAgIAogIDwvbWV0YWRhdGE+CiAgPGRlZnMgaWQ9ImRlZnM2Ii8+CiAgCiAgPHBhdGggaWQ9InBhdGgzNyIgZD0iTSAxNzkuNTQ2OTgsNTQ1LjcyODYzIEMgMTE2LjEyODYxLDUzNS42MTU1IDY1LjEzODE2NSw0ODguMDgxNjMgNTIuODA5MTA1LDQyNy41ODIxMSA0NS45OTUzMzQsMzk0LjE0NjIgNTEuNzUzNDUyLDM1Ny44ODIyNCA2OC4xNjYzNjcsMzMwLjg2MzYzIGwgMy42Mjc4MSwtNS45NzE5NyAtNC4yNzEzMjMsLTkuOTA3MzIgQyA0My4yNDIwMjYsMjU4LjY2NDQyIDU4LjQxNzA4NiwxOTMuMTA3MTcgMTA0LjQxNTA1LDE1NS42MDc4IDExNS4wODA5MSwxNDYuOTEyNTkgMjM3LjE4NjI2LDY5LjM4MTU2NiAyNDkuNTYzMjIsNjMuNDQ1NzAyIDI3MC45NTgzNSw1My4xODQ4NzMgMjkwLjcyNDA4LDQ5LjI0MzI3OSAzMTYuMzk2ODgsNTAuMTE4MDYgYyAxOC41Mjc0OSwwLjYzMTI5OSAyNy4yMzQ3MiwyLjE0NjcyMSA0My42NDgwMyw3LjU5NjUyIDUxLjYxODY2LDE3LjEzOTI0NiA5MC42Mjk0Nyw2MC4yNDgxMSAxMDEuMTI0MzQsMTExLjc0NzU5IDYuODEzNzcsMzMuNDM1OSAxLjA1NTc0LDY5LjY5OTg3IC0xNS4zNTcxOCw5Ni43MTg0NyBsIC0zLjYyNzc5LDUuOTcxOTggNC4yNzEyMiw5LjkwNzMyIGMgMjQuMjgwOTEsNTYuMzE5OTIgOS4xMDU4NSwxMjEuODc3MTYgLTM2Ljg5MjEsMTU5LjM3NjUzIC0xMC42NjU4NSw4LjY5NTIxIC0xMzIuNzcxMjcsODYuMjI2MjIgLTE0NS4xNDgyMyw5Mi4xNjIwOSAtMTIuMDU1MzYsNS43ODE1OCAtMjUuMjY2MjIsOS44Njc4MyAtMzkuMjE5OSwxMi4xMzExIC0xMS41MDQ4NiwxLjg2NjAxIC0zMy45NDMxNywxLjg2NTQ2IC00NS42NDgyOSwtOGUtNCB6IG0gNDAuMTA3MDcsLTU2LjQ1MTQ1IGMgOC40NjIyNSwtMS44NjM3NiAxOC4yMjk5MSwtNS42NzYxOCAyNC40MzcwMSwtOS41MzgwMiAzNS43MTg3NywtMjIuMjIzMDEgMTIzLjU3NDA4LC03OC44ODY5NCAxMjcuNTkxODIsLTgyLjI5Mjc1IDEyLjEyNzIxLC0xMC4yODAxMyAyMS43MzE2LC0yNS4yNDM3NCAyNi4wNDQ4NCwtNDAuNTc3NDIgMy40MDA1NiwtMTIuMDg5MzMgMy4zOTU4NywtMzEuNTA0MDEgLTAuMDEwMywtNDMuNDk0OTMgLTEzLjgzNzM2LC00OC43MDkxIC02My42NjQxNiwtNzcuNjEwNzkgLTExMi4zNTU1LC02NS4xNzEwNiAtMTAuODY3NzksMi43NzY1IC0xOC43MTM3NSw2LjkyOTU0IC00NS43Nzk4NywyNC4yMzIxNyAtMTMuMDc0ODksOC4zNTg0NCAtMjUuMzUyMTUsMTUuODU3MTcgLTI3LjI4Mjg1LDE2LjY2Mzg2IC00LjE2MDU1LDEuNzM4NDEgLTEzLjg4ODcsMS45MjQ3MiAtMTguMDk2MTksMC4zNDY1OCAtMTcuNjcwODIsLTYuNjI3OTkgLTIzLjg0ODY0LC0yOC4yMDk1MyAtMTEuNjQ0NTcsLTQwLjY3OTEgNS4zNzc2NCwtNS40OTQ2MiAxMjIuMDM4NTIsLTc5Ljg5NDI1IDEyNy43NDg5OCwtODEuNDcwOTggOS4wMzczNCwtMi40OTUzMiAyMC4zNTI1MiwxLjAxMzQ4IDI2Ljc0NDI5LDguMjkzMzYgNC44ODIzNSw1LjU2MDczIDYuNzI3NzYsMTAuNTE5NDQgNi42OTQ5OCwxNy45OTAxNSBsIC0wLjAyODYsNi40NDYzMyA0LjkwNDMxLDEuMzA2MDggYyAxMi4zMDY3OSwzLjI3NzUgMzQuMDU3NjQsMTQuMjQ1NDYgNDUuMzUwNDYsMjIuODY4MTYgMi43MTk4MSwyLjA3Njc0IDUuMjg0MzIsMy43NzU4OCA1LjY5ODkyLDMuNzc1ODggMS4yODg3LDAgNS4yNTU0NCwtMTQuOTUwMTYgNi40MDAxMiwtMjQuMTIxNDIgMy40MDY2OSwtMjcuMjk1NTQgLTkuMDYyNTYsLTU3LjEzMTQ4IC0zMS45MzI3MiwtNzYuNDA3NDUgLTI2LjI5MzgsLTIyLjE2MTQ2IC02Mi4zMDQwOSwtMjguMDAwMTY3IC05NC4wNjczNSwtMTUuMjUyMDcgLTYuNTc2OTEsMi42Mzk2NSAtMC4xOTg5OSwtMS4yODk0OSAtNzQuMDAzNTgsNDUuNTkwMDYgLTU1Ljc5MTU1LDM1LjQzOCAtNTkuOTkwNzcsMzguMzE5MTEgLTY4Ljk4NzM4LDQ3LjMzMjU3IC0xMC44NTgwOCwxMC44Nzg1MyAtMTYuNzUyMTYsMjAuODE2MjUgLTIwLjgyODcsMzUuMTE4MTQgLTMuNDE0NCwxMS45Nzg5NCAtMy40MTAzNSwzMS4zOTgyMiAwLjAwOSw0My40MzQ4OSAxMy44MzczNSw0OC43MDkwOSA2My42NjQwNyw3Ny42MTA3OSAxMTIuMzU1NTIsNjUuMTcxMDcgMTAuODI0MDMsLTIuNzY1MzMgMTguNjMxNjMsLTYuODk2MDkgNDUuODc2NTMsLTI0LjI3MTcgMTMuMTI4MDQsLTguMzcyNTEgMjUuNDA1MzEsLTE1Ljg2ODExIDI3LjI4Mjg2LC0xNi42NTY4OSA0LjA3MTI4LC0xLjcxMDQ1IDEzLjgyMjg3LC0xLjg4MDU5IDE3Ljk5OTQ5LC0wLjMxNDAyIDE3LjY3MDgyLDYuNjI3OTcgMjMuODQ4NjQsMjguMjA5NTIgMTEuNjQ0NTgsNDAuNjc5MSAtNS4zNzc2NSw1LjQ5NDYxIC0xMjIuMDM4NTEsNzkuODk0MjMgLTEyNy43NDg5OSw4MS40NzA5NyAtOS4wMzczNCwyLjQ5NTMzIC0yMC4zNTI1MiwtMS4wMTM0OSAtMjYuNzQ0MjgsLTguMjkzMzYgLTQuODgyNDQsLTUuNTYwNzMgLTYuNzI3NzcsLTEwLjUxOTQzIC02LjY5NDk5LC0xNy45OTAxNSBsIDAuMDI4NiwtNi40NDYzMyAtNC45MDQzMiwtMS4zMDYwOSBjIC0xMi4zMDYxNSwtMy4yNzc0OSAtMzQuMDU3LC0xNC4yNDU0NSAtNDUuMzQ5ODIsLTIyLjg2ODE1IC0yLjcxOTgxLC0yLjA3NjczIC01LjI4NDMxLC0zLjc3NTg4IC01LjY5ODkyLC0zLjc3NTg4IC0xLjI4ODY5LDAgLTUuMjU1NDMsMTQuOTUwMTYgLTYuNDAwMTIsMjQuMTIxNDMgLTQuMjY1NjUsMzQuMTc3OCAxNi4xMjc0NCw3MC44MDc1OSA0OC44MzIyNSw4Ny43MTE2NCAyMC4xODY3OSwxMC40MzM5IDQwLjk5MjksMTMuMjAzNjQgNjIuOTE1MzIsOC4zNzUzMyB6IiBzdHlsZT0iZmlsbDojZmYyYTJhO3N0cm9rZS13aWR0aDoxLjA2MDg1MTgxIi8+Cjwvc3ZnPg==;" parent="610" vertex="1">
                    <mxGeometry x="150" y="16.77" width="74.44" height="86.46" as="geometry"/>
                </mxCell>
                <mxCell id="615" value="&lt;font style=&quot;font-size: 34px;&quot;&gt;&lt;b&gt;Backend&lt;/b&gt;&lt;/font&gt;" style="text;html=1;align=center;verticalAlign=middle;whiteSpace=wrap;rounded=0;" parent="1" vertex="1">
                    <mxGeometry x="492" y="140" width="170" height="70" as="geometry"/>
                </mxCell>
                <mxCell id="616" value="&lt;font style=&quot;font-size: 34px;&quot;&gt;&lt;b&gt;Frontend&lt;/b&gt;&lt;/font&gt;" style="text;html=1;align=center;verticalAlign=middle;whiteSpace=wrap;rounded=0;" parent="1" vertex="1">
                    <mxGeometry x="945.9999999999999" y="1340" width="170" height="70" as="geometry"/>
                </mxCell>
                <mxCell id="619" value="" style="endArrow=classic;startArrow=classic;html=1;entryX=0.5;entryY=1;entryDx=0;entryDy=0;exitX=0.991;exitY=0.497;exitDx=0;exitDy=0;exitPerimeter=0;" parent="1" source="611" target="597" edge="1">
                    <mxGeometry width="50" height="50" relative="1" as="geometry">
                        <mxPoint x="920" y="1280" as="sourcePoint"/>
                        <mxPoint x="890" y="1150" as="targetPoint"/>
                        <Array as="points">
                            <mxPoint x="946" y="1275"/>
                        </Array>
                    </mxGeometry>
                </mxCell>
                <mxCell id="620" value="" style="endArrow=classic;startArrow=classic;html=1;exitX=0;exitY=0.5;exitDx=0;exitDy=0;entryX=0.5;entryY=1;entryDx=0;entryDy=0;rounded=1;curved=0;" parent="1" target="602" edge="1">
                    <mxGeometry width="50" height="50" relative="1" as="geometry">
                        <mxPoint x="677" y="1275" as="sourcePoint"/>
                        <mxPoint x="647" y="980" as="targetPoint"/>
                        <Array as="points">
                            <mxPoint x="646" y="1275"/>
                        </Array>
                    </mxGeometry>
                </mxCell>
                <mxCell id="621" value="" style="rounded=1;whiteSpace=wrap;html=1;dashed=1;strokeColor=light-dark(#4185ed, #ededed);strokeWidth=2;fillColor=none;movable=1;resizable=1;rotatable=1;deletable=1;editable=1;locked=0;connectable=1;fillStyle=cross-hatch;" parent="1" vertex="1">
                    <mxGeometry x="1200" y="50" width="520" height="510" as="geometry"/>
                </mxCell>
                <mxCell id="622" value="" style="shape=image;verticalLabelPosition=bottom;labelBackgroundColor=default;verticalAlign=top;aspect=fixed;imageAspect=0;image=data:image/svg+xml,PHN2ZyB4bWxucz0iaHR0cDovL3d3dy53My5vcmcvMjAwMC9zdmciIHZpZXdCb3g9IjAgMCA5Ny43NSA3OC42MiI+PHBhdGggZmlsbD0iI2VhNDMzNSIgZD0iTTYyLjIxIDIxLjczbDMuMTMuMDYgOC41My04LjUxLjQyLTMuNmEzOC4yIDM4LjIgMCAwIDAtNjIuMyAxOC41N2MuODgtLjY0IDIuODgtLjE2IDIuODgtLjE2bDE3LTIuOHMuODgtMS40NCAxLjMxLTEuMzVhMjEuMTkgMjEuMTkgMCAwIDEgMjktMi4yMXoiLz48cGF0aCBmaWxsPSIjNDI4NWY0IiBkPSJNODUuNzkgMjguMjdhMzguMzIgMzguMzIgMCAwIDAtMTEuNTQtMTguNmwtMTIgMTJhMjEuMiAyMS4yIDAgMCAxIDcuOTIgMTYuNTN2Mi4xOWExMC42MyAxMC42MyAwIDEgMSAwIDIxLjI1aC0yMS4zbC0yLjEyIDIuMTR2MTIuNzNsMi4xMiAyLjEyaDIxLjI1YTI3LjYxIDI3LjYxIDAgMCAwIDE1LjY3LTUwLjM2eiIvPjxwYXRoIGZpbGw9IiMzNGE4NTMiIGQ9Ik0yNy42MiA3OC42M2gyMS4yNXYtMTdIMjcuNjJhMTAuNTQgMTAuNTQgMCAwIDEtNC4zOC0xbC0zLjA2Ljk0LTguNTEgOC41NS0uNzQgMi44OGEyNy40NyAyNy40NyAwIDAgMCAxNi42OSA1LjYzeiIvPjxwYXRoIGZpbGw9IiNmYmJjMDQiIGQ9Ik0yNy42MiAyMy4zOUEyNy42MSAyNy42MSAwIDAgMCAxMC45NCA3M2wxMi4zMi0xMi4zMmExMC42MiAxMC42MiAwIDEgMSAxNC0xNGwxMi4zNi0xMi4zNmEyNy42IDI3LjYgMCAwIDAtMjItMTAuOTN6Ii8+PC9zdmc+;" parent="1" vertex="1">
                    <mxGeometry x="1240" y="81.36999999999999" width="58.61" height="47.25" as="geometry"/>
                </mxCell>
                <mxCell id="623" value="&lt;font style=&quot;font-size: 27px;&quot;&gt;&lt;b style=&quot;&quot;&gt;Google Cloud Platform&lt;/b&gt;&lt;/font&gt;" style="text;html=1;align=left;verticalAlign=middle;whiteSpace=wrap;rounded=0;" parent="1" vertex="1">
                    <mxGeometry x="1300.61" y="77.11999999999999" width="349.99" height="55.75" as="geometry"/>
                </mxCell>
                <mxCell id="624" value="" style="group" parent="1" vertex="1" connectable="0">
                    <mxGeometry x="1310" y="230" width="300" height="200" as="geometry"/>
                </mxCell>
                <mxCell id="625" value="" style="rounded=1;whiteSpace=wrap;html=1;" parent="624" vertex="1">
                    <mxGeometry x="30" width="240" height="190" as="geometry"/>
                </mxCell>
                <mxCell id="629" value="" style="shape=image;verticalLabelPosition=bottom;labelBackgroundColor=default;verticalAlign=top;aspect=fixed;imageAspect=0;image=data:image/svg+xml,PHN2ZyB4bWxucz0iaHR0cDovL3d3dy53My5vcmcvMjAwMC9zdmciIGFyaWEtaGlkZGVuPSJ0cnVlIiBmaWxsLXJ1bGU9ImV2ZW5vZGQiIGZpbGw9Im5vbmUiIGhlaWdodD0iMzIiIHdpZHRoPSIzMiIgdmlld0JveD0iMCAwIDMyIDMyIiBkYXRhLWljb24tbmFtZT0iY2xvdWRSdW5TZWN0aW9uSWNvbiI+PHBhdGggZD0ibTExLjA0NiAxIDQuOTg2IDE1SDMxeiIgZmlsbD0idmFyKC0tY20tc3lzLWNvbG9yLWxvZ28tZ3JleS1zb2Z0LXRvbmUsICM3NTc1NzUpIi8+PHBhdGggZD0iTTMxIDE2SDE2LjAzMmwtNC45ODYgMTV6TTIuMzEgMzFsNC45OTQtMi41MDNMMTEuMDQ2IDE2SDYuMDV6IiBmaWxsPSJ2YXIoLS1jbS1zeXMtY29sb3ItbG9nby1ncmV5LWRlZXAtdG9uZSwgIzQyNDI0MikiLz48cGF0aCBkPSJtMi4zMSAxIDMuNzQgMTVoNC45OTZMNy4zMDQgMy41MDN6IiBmaWxsPSJ2YXIoLS1jbS1zeXMtY29sb3ItbG9nby1ncmV5LXNvZnQtdG9uZSwgIzc1NzU3NSkiLz48L3N2Zz4=;" parent="624" vertex="1">
                    <mxGeometry x="105" y="10" width="90" height="90" as="geometry"/>
                </mxCell>
                <mxCell id="630" value="&lt;span style=&quot;font-size: 25px;&quot;&gt;GCP CloudRun&lt;/span&gt;&lt;div&gt;&lt;span style=&quot;font-size: 25px;&quot;&gt;Proxy&lt;/span&gt;&lt;/div&gt;" style="text;html=1;align=center;verticalAlign=middle;whiteSpace=wrap;rounded=0;" parent="624" vertex="1">
                    <mxGeometry y="110" width="300" height="60" as="geometry"/>
                </mxCell>
                <mxCell id="631" value="" style="endArrow=classic;startArrow=classic;html=1;exitX=1;exitY=0.5;exitDx=0;exitDy=0;entryX=0;entryY=0.5;entryDx=0;entryDy=0;" parent="1" source="578" target="625" edge="1">
                    <mxGeometry width="50" height="50" relative="1" as="geometry">
                        <mxPoint x="1130" y="320" as="sourcePoint"/>
                        <mxPoint x="1180" y="270" as="targetPoint"/>
                        <Array as="points">
                            <mxPoint x="1180" y="245"/>
                            <mxPoint x="1180" y="325"/>
                        </Array>
                    </mxGeometry>
                </mxCell>
                <mxCell id="632" value="" style="endArrow=classic;startArrow=classic;html=1;entryX=0.5;entryY=1;entryDx=0;entryDy=0;exitX=1;exitY=0.5;exitDx=0;exitDy=0;" parent="1" source="588" target="625" edge="1">
                    <mxGeometry width="50" height="50" relative="1" as="geometry">
                        <mxPoint x="1040" y="490" as="sourcePoint"/>
                        <mxPoint x="1090" y="440" as="targetPoint"/>
                        <Array as="points">
                            <mxPoint x="1460" y="655"/>
                        </Array>
                    </mxGeometry>
                </mxCell>
            </root>
        </mxGraphModel>
    </diagram>
</mxfile>